<svg width="128" height="128" viewBox="0 0 128 128" fill="none" xmlns="http://www.w3.org/2000/svg">
<rect width="128" height="128" rx="15" fill="#172030"/>
<path d="M52.5551 69.3712C58.8809 72.6162 66.1577 73.4951 73.0743 71.8496C79.9908 70.2041 86.0922 66.1424 90.279 60.3963C94.4657 54.6503 96.4626 47.5978 95.9096 40.5097C95.3566 33.4217 92.2903 26.7642 87.263 21.737C82.2358 16.7097 75.5783 13.6434 68.4903 13.0904C61.4022 12.5374 54.3497 14.5343 48.6037 18.721C42.8576 22.9078 38.7959 29.0092 37.1504 35.9257C35.5049 42.8423 36.3838 50.1191 39.6288 56.4449L33 76L52.5551 69.3712Z" fill="#50A2FF"/>
<path d="M39.4609 87.4062V113H33.8887V87.4062H39.4609ZM48.6895 98.4629V113H43.3457V93.9805H48.3555L48.6895 98.4629ZM53.1367 93.8398L53.084 99.043C52.8613 99.0078 52.5801 98.9785 52.2402 98.9551C51.9004 98.9199 51.6133 98.9023 51.3789 98.9023C50.8398 98.9023 50.3828 98.9844 50.0078 99.1484C49.6328 99.3125 49.3223 99.5586 49.0762 99.8867C48.8301 100.203 48.6484 100.602 48.5312 101.082C48.4141 101.562 48.3555 102.113 48.3555 102.734L47.4062 102.207C47.4062 100.941 47.5 99.7871 47.6875 98.7441C47.8867 97.7012 48.1738 96.7988 48.5488 96.0371C48.9355 95.2754 49.3984 94.6836 49.9375 94.2617C50.4766 93.8398 51.0801 93.6289 51.748 93.6289C51.9824 93.6289 52.2285 93.6465 52.4863 93.6816C52.7559 93.7168 52.9727 93.7695 53.1367 93.8398ZM63.7715 107.85C63.7715 107.51 63.6484 107.229 63.4023 107.006C63.168 106.771 62.8223 106.537 62.3652 106.303C61.9082 106.057 61.3223 105.758 60.6074 105.406C59.7988 105.066 59.0605 104.709 58.3926 104.334C57.7246 103.959 57.1504 103.543 56.6699 103.086C56.1895 102.617 55.8203 102.084 55.5625 101.486C55.3164 100.889 55.1934 100.197 55.1934 99.4121C55.1934 98.6035 55.3398 97.8535 55.6328 97.1621C55.9258 96.4707 56.3594 95.8613 56.9336 95.334C57.5195 94.8066 58.2227 94.3906 59.043 94.0859C59.875 93.7812 60.8184 93.6289 61.873 93.6289C63.3262 93.6289 64.5801 93.875 65.6348 94.3672C66.6895 94.8594 67.498 95.5566 68.0605 96.459C68.6348 97.3613 68.9219 98.4102 68.9219 99.6055H63.5781C63.5781 99.1602 63.5254 98.7793 63.4199 98.4629C63.3145 98.1348 63.1328 97.8887 62.875 97.7246C62.6289 97.5488 62.2891 97.4609 61.8555 97.4609C61.5742 97.4609 61.3105 97.5312 61.0645 97.6719C60.8301 97.8008 60.6367 97.9883 60.4844 98.2344C60.3438 98.4805 60.2734 98.7793 60.2734 99.1309C60.2734 99.3887 60.3262 99.6113 60.4316 99.7988C60.5371 99.9863 60.6953 100.168 60.9062 100.344C61.1289 100.52 61.4043 100.701 61.7324 100.889C62.0723 101.064 62.4883 101.27 62.9805 101.504C64.1172 101.926 65.1309 102.389 66.0215 102.893C66.9238 103.396 67.6328 104.023 68.1484 104.773C68.6758 105.512 68.9395 106.479 68.9395 107.674C68.9395 108.518 68.7754 109.285 68.4473 109.977C68.1191 110.668 67.6445 111.271 67.0234 111.787C66.4023 112.291 65.6582 112.678 64.791 112.947C63.9238 113.217 62.9453 113.352 61.8555 113.352C60.3086 113.352 58.9961 113.047 57.918 112.438C56.8516 111.816 56.0488 111.031 55.5098 110.082C54.9707 109.121 54.7012 108.125 54.7012 107.094H59.7109C59.7344 107.703 59.8398 108.184 60.0273 108.535C60.2148 108.875 60.4727 109.121 60.8008 109.273C61.1406 109.414 61.5332 109.484 61.9785 109.484C62.3887 109.484 62.7227 109.426 62.9805 109.309C63.2383 109.18 63.4316 108.992 63.5605 108.746C63.7012 108.488 63.7715 108.189 63.7715 107.85ZM80.0137 108.412V99.8516C80.0137 99.2891 79.9609 98.8555 79.8555 98.5508C79.75 98.2344 79.5859 98.0059 79.3633 97.8652C79.1406 97.7246 78.8477 97.6543 78.4844 97.6543C78.1328 97.6543 77.8398 97.7363 77.6055 97.9004C77.3711 98.0527 77.2012 98.2871 77.0957 98.6035C77.002 98.9082 76.9551 99.2949 76.9551 99.7637H71.5938C71.5938 98.9082 71.7578 98.1113 72.0859 97.373C72.4141 96.623 72.8887 95.9668 73.5098 95.4043C74.1309 94.8418 74.875 94.4082 75.7422 94.1035C76.6211 93.7871 77.6055 93.6289 78.6953 93.6289C79.9727 93.6289 81.1152 93.8398 82.123 94.2617C83.1309 94.6836 83.9277 95.3574 84.5137 96.2832C85.0996 97.1973 85.3926 98.4043 85.3926 99.9043V108.289C85.3926 109.449 85.4512 110.357 85.5684 111.014C85.6973 111.658 85.873 112.221 86.0957 112.701V113H80.7344C80.4883 112.438 80.3066 111.746 80.1895 110.926C80.0723 110.105 80.0137 109.268 80.0137 108.412ZM80.6465 101.381L80.6641 104.439H79.0117C78.5898 104.439 78.2266 104.521 77.9219 104.686C77.6289 104.85 77.3828 105.072 77.1836 105.354C76.9844 105.623 76.8379 105.934 76.7441 106.285C76.6504 106.637 76.6035 107.006 76.6035 107.393C76.6035 107.873 76.6621 108.254 76.7793 108.535C76.9082 108.805 77.0781 108.998 77.2891 109.115C77.5 109.232 77.7461 109.291 78.0273 109.291C78.5195 109.291 78.9355 109.191 79.2754 108.992C79.627 108.781 79.8848 108.529 80.0488 108.236C80.2129 107.943 80.2598 107.686 80.1895 107.463L81.0859 109.572C80.9102 110.006 80.7109 110.445 80.4883 110.891C80.2773 111.324 80.0078 111.729 79.6797 112.104C79.3633 112.479 78.9707 112.777 78.502 113C78.0332 113.234 77.459 113.352 76.7793 113.352C75.7715 113.352 74.8457 113.135 74.002 112.701C73.1699 112.268 72.502 111.629 71.998 110.785C71.5059 109.941 71.2598 108.916 71.2598 107.709C71.2598 106.783 71.4062 105.934 71.6992 105.16C71.9922 104.387 72.4434 103.719 73.0527 103.156C73.6621 102.594 74.4531 102.16 75.4258 101.855C76.4102 101.539 77.5879 101.381 78.959 101.381H80.6465ZM94.3223 86V113H88.9609V86H94.3223Z" fill="#50A2FF"/>
</svg>
